# xmcd
#
# Track frame offsets: 
#        182
#        13062
#        35172
#        51570
#        77255
#        106332
#        127552
#        141425
#        176490
#        192282
#        225357
#
# Disc length: 3298 seconds
#
# Revision: 6
# Processed by: cddbd v1.5.2PL0 Copyright (c) Steve Scherf et al.
# Submitted via: ExactAudioCopyFreeDBPlugin 1.0
#
DISCID=880ce00b
DTITLE=Muddy Waters - Chicago Blues
DYEAR=1972
DGENRE=Blues
TTITLE0=Baby, Please Don't Go
TTITLE1=Soon Forgotten
TTITLE2=Corinne, Corrina
TTITLE3=After Hours
TTITLE4=Howlin' Wolf
TTITLE5=Junior Shuffle
TTITLE6=I'm Your Hoochie Coochie Man
TTITLE7=Floyd's Guitar Blues
TTITLE8=J.P.'s Boogie
TTITLE9=Goin' Down Slow
TTITLE10=What's the Matter with the Mill?
EXTD=YEAR: 1972
EXTT0=
EXTT1=
EXTT2=
EXTT3=
EXTT4=
EXTT5=
EXTT6=
EXTT7=
EXTT8=
EXTT9=
EXTT10=
PLAYORDER=
